PathFileType	4	(X/Y/Z)	s01c0301.trc
DataRate	CameraRate	NumFrames	NumMarkers	Units	OrigDataRate	OrigDataStartFrame	OrigNumFrames
200	200	4	48	mm	200	250	2000
Frame#	Time	racr			lacr			c7			jug			rlel			rdr			llel			ldr			s2			lic			ric			lasi			rasi			rpsi			lpsi			rgt			lgt			rth1			rth2			rth3			rth4			rlfc			rsh1			rsh2			rsh3			rsh4			rlmal			rmmal			rcal			rtoe			rmt5			lth1			lth2			lth4			lth3			llfc			lsh1			lsh2			lsh3			lsh4			llmal			lmmal			lcal			ltoe			lmt5			SBIKE			LBIKE			RBIKE			
		X1	Y1	Z1	X2	Y2	Z2	X3	Y3	Z3	X4	Y4	Z4	X5	Y5	Z5	X6	Y6	Z6	X7	Y7	Z7	X8	Y8	Z8	X9	Y9	Z9	X10	Y10	Z10	X11	Y11	Z11	X12	Y12	Z12	X13	Y13	Z13	X14	Y14	Z14	X15	Y15	Z15	X16	Y16	Z16	X17	Y17	Z17	X18	Y18	Z18	X19	Y19	Z19	X20	Y20	Z20	X21	Y21	Z21	X22	Y22	Z22	X23	Y23	Z23	X24	Y24	Z24	X25	Y25	Z25	X26	Y26	Z26	X27	Y27	Z27	X28	Y28	Z28	X29	Y29	Z29	X30	Y30	Z30	X31	Y31	Z31	X32	Y32	Z32	X33	Y33	Z33	X34	Y34	Z34	X35	Y35	Z35	X36	Y36	Z36	X37	Y37	Z37	X38	Y38	Z38	X39	Y39	Z39	X40	Y40	Z40	X41	Y41	Z41	X42	Y42	Z42	X43	Y43	Z43	X44	Y44	Z44	X45	Y45	Z45	X46	Y46	Z46	X47	Y47	Z47	X48	Y48	Z48	
250	1.2500	516.594051	1344.496284	-127.171552	495.709638	1350.396621	-424.506161	435.037256	1413.564623	-267.458891	464.625904	1251.075546	-275.922541	569.732623	1068.688000	-25.033070	719.738864	855.247837	-83.536727	552.668622	1082.117551	-540.846765	711.184112	883.428350	-485.078953	-86.996163	1184.702208	-232.023724	86.091850	1189.462705	-407.781686	87.189058	1161.738771	-90.566122	82.310014	1133.464968	-388.192887	101.143114	1112.516507	-112.774283	-47.081890	1214.190552	-179.824515	-57.373095	1228.810497	-283.800418	17.147740	1047.215610	-58.742171	21.743909	1082.973787	-443.723581	105.311018	941.206041	-50.536198	162.502586	882.007594	-60.368346	219.241815	813.455546	-77.157657	202.253981	918.197636	-74.059835	255.957269	711.630081	-107.329793	181.575336	620.746177	-71.785039	137.370307	548.406749	-74.557688	82.785805	478.293150	-84.466621	173.517345	525.414670	-117.226251	1.235574	375.363861	-101.956742	46.229774	376.106478	-182.126408	-50.041383	360.552421	-160.347126	192.664407	235.977971	-138.359782	84.100155	252.044307	-74.541541	114.680374	994.694617	-439.319681	199.079678	968.172521	-433.452987	216.337983	1019.511887	-424.198374	276.428263	934.905786	-415.808546	367.925368	861.141257	-389.142722	320.786556	760.935302	-427.233945	301.844306	675.899008	-424.906931	280.977384	592.969575	-416.889143	354.716985	665.796439	-395.485438	246.631954	470.544893	-410.371468	274.544621	478.663336	-323.353319	197.952226	425.255519	-370.567318	475.047572	439.015981	-385.225134	371.948798	405.240947	-449.825683	-227.909768	890.665040	-252.809772	-21.389956	80.314730	-454.140938	-21.413962	80.228506	-54.041480	
251	1.2550	517.645170	1344.285199	-127.575690	496.341583	1349.230960	-423.756186	436.256472	1413.797156	-267.706098	464.744307	1250.902076	-275.780974	570.084059	1068.541173	-25.211847	719.793053	854.926364	-83.588664	548.885452	1079.634670	-541.905602	710.341527	883.387326	-484.801297	-86.674280	1186.195083	-231.665844	86.605916	1190.056046	-407.216470	87.310278	1163.244749	-90.203873	83.364026	1134.487768	-387.833146	101.114530	1113.718170	-112.204172	-47.003507	1215.726556	-179.268377	-56.976918	1230.276676	-283.542195	17.349822	1048.763856	-58.208096	22.202196	1084.383073	-443.271914	105.672346	943.188539	-50.217344	162.819426	883.893152	-59.979941	219.488236	815.208884	-76.667592	202.508859	920.010020	-74.065637	255.982640	713.135448	-106.708566	181.651167	622.106202	-71.262714	137.506997	549.833712	-74.030928	82.970356	479.565299	-84.030240	173.684974	526.893069	-116.681702	1.263156	376.766685	-101.773051	46.349741	377.425468	-181.845796	-49.921423	362.068620	-160.185834	192.284280	236.390216	-138.452231	83.866042	252.866554	-74.507909	114.718656	995.727615	-438.829918	198.991939	968.886489	-432.710645	216.324462	1020.044834	-423.351377	276.082623	934.949971	-415.148511	367.327542	860.496615	-388.234862	320.546588	760.184442	-426.612827	301.833721	675.025968	-424.426962	281.133110	592.114370	-416.660376	354.670103	665.035527	-394.907742	246.974550	469.740992	-410.414355	274.854136	477.699515	-323.403488	198.338367	424.441785	-370.681999	475.469517	438.094596	-385.292947	372.423717	404.260649	-449.937119	-227.915290	890.678502	-252.896829	-21.408903	80.290536	-454.151527	-21.422992	80.247570	-54.048939	
252	1.2600	518.730207	1344.064277	-127.896848	496.984237	1348.054930	-423.160941	437.562134	1413.972419	-267.812855	464.987311	1250.751415	-275.550626	570.501369	1068.219726	-25.241565	719.555149	854.163479	-84.068500	544.704261	1077.251310	-543.232926	709.476685	883.514266	-484.893426	-86.256256	1187.650211	-231.466218	87.424590	1190.754392	-406.674371	87.494748	1164.491858	-89.720574	84.233337	1135.902105	-387.583779	101.126053	1114.886477	-111.753840	-46.746804	1217.188626	-178.863261	-56.442037	1231.752444	-283.289782	17.517481	1050.232952	-57.731047	22.905668	1085.685380	-442.851024	106.053791	944.999450	-49.835524	163.198493	885.674068	-59.587988	219.859728	816.928169	-76.073365	202.813452	921.700325	-74.078923	256.018486	714.581026	-106.006899	181.709696	623.406892	-70.644330	137.543956	551.097870	-73.513044	83.014718	480.997119	-83.587074	173.815650	528.300387	-116.186319	1.161676	378.101952	-101.585099	46.303022	378.736746	-181.512455	-49.969386	363.500357	-160.013768	191.857771	237.029226	-138.549186	83.556067	253.763026	-74.496244	114.776043	996.736630	-438.410893	198.933921	969.380204	-432.101691	216.534789	1020.462758	-422.695639	275.762149	934.966057	-414.380816	366.757207	859.858094	-387.461228	320.398146	759.322407	-426.169811	301.896614	674.353650	-424.182555	281.363591	591.212423	-416.560009	354.668059	664.288685	-394.540279	247.391393	468.853645	-410.639620	275.202712	476.666001	-323.546469	198.855348	423.460852	-370.935220	476.139905	437.072991	-385.354305	372.986026	403.236166	-450.005929	-227.895363	890.677705	-252.968366	-21.427931	80.286067	-454.180555	-21.416637	80.246169	-54.063261	
253	1.2650	519.790535	1343.770497	-128.099454	497.642687	1346.892028	-422.688151	438.829837	1414.103130	-267.828570	465.286234	1250.635311	-275.215467	570.722417	1067.859351	-25.243992	719.466444	853.806873	-84.221593	539.826120	1074.867687	-544.782403	708.627530	883.693252	-485.013104	-85.815112	1189.045524	-231.344506	88.339557	1191.409862	-406.057819	87.849704	1165.716884	-89.197150	85.103682	1137.274477	-387.331597	101.168745	1115.881218	-111.327543	-46.369639	1218.566915	-178.579066	-55.875347	1233.176818	-283.154169	17.689006	1051.661874	-57.346029	23.741374	1087.072564	-442.477885	106.655034	946.895053	-49.061305	163.654403	887.439286	-59.164956	220.286724	818.612585	-75.513436	203.119227	923.412871	-74.031217	256.074343	716.000474	-105.299607	181.832967	624.750111	-69.949535	137.595321	552.441805	-72.968916	82.944070	482.249936	-83.252580	173.841633	529.514348	-115.658368	0.858037	379.513456	-101.432393	46.215280	379.989912	-181.166834	-50.162737	364.852118	-159.834040	191.477228	237.730206	-138.610022	83.203770	254.637328	-74.484487	115.013636	997.659487	-438.073627	199.010771	969.775196	-431.560728	216.934125	1020.662564	-421.959849	275.499543	934.835321	-413.759039	366.288889	859.140364	-386.750826	320.259638	758.583845	-425.856429	302.012974	673.392365	-423.953911	281.659276	590.353361	-416.552764	354.718059	663.576645	-394.294655	247.825019	467.819164	-410.836673	275.589307	475.630773	-323.771099	199.392500	422.565792	-371.311853	476.754006	435.816753	-385.410658	373.625709	402.227854	-450.175458	-227.850270	890.690902	-253.083541	-21.433743	80.264691	-454.195681	-21.428779	80.244228	-54.072424	
